*********** **** **** *** ******** *********** **** *** **********

*+* +*+*+* *+*+*+ *+* *+* *+* *+* *+* *+*+* *+* *+*

+*+ +*+ +*+*+ +*+ +*+ +*+ +*+ +*+ *+*+*+ +*+ +*+

+$+ +$+ +*+ +$+ +$++*++$++* *$* +$+ +$+ +*+ +$+ +$++*++$

+$+ +$+ +$+ +$+ +$+ +$+ +$+$ +$+ +$+ +$+$+$ +$+

$+$ $+$ $+$ $+$ $+$ $+$ $+$ $+$ $+$ $+$+$ $+$

$$$$$$$$$$$ $$$ $$$ $$$ $$$ $$$$$$$$ $$$$$$$$$$$ $$$ $$$$ $$$$$$$$$$









Another Fine Release Brought to you from - IMAGiNE





********************************************************************************************************************

Of Gods And Men ENG SUBBED DVDSCR XViD - IMAGiNE

********************************************************************************************************************



Ripper ...........: IMAGiNE IMDB Rating.......:7.6/10

Video Codec.......: XVID Release Date......:09/08/10

Audio Codec.......:MP3 Theatre Date......:09/08/10

Audio Bitrate.....:128 Runtime.......:1h 57mn

Subtitles.........:English Language..........:French

Resolution...... 640 x 272 IMDb URL.......... http://www.imdb.com/title/tt1588337/





DETAILS:

Video

Format : MPEG-4 Visual

Format profile : Streaming Video@L1

Format settings, BVOP : Yes

Format settings, QPel : No

Format settings, GMC : No warppoints

Format settings, Matrix : Default

Muxing mode : Packed bitstream

Codec ID : XVID

Codec ID/Hint : XviD

Duration : 1h 57mn

Bit rate : 1 533 Kbps

Width : 640 pixels

Height : 272 pixels

Display aspect ratio : 2.35

Frame rate : 25.000 fps

Resolution : 24 bits

Colorimetry : 4:2:0

Scan type : Progressive

Bits/(Pixel*Frame) : 0.352

Stream size : 1.26 GiB (92%)

Writing library : XviD 1.1.2 (UTC 2006-11-01)



Audio

Format : MPEG Audio

Format version : Version 1

Format profile : Layer 3

Codec ID : 55

Codec ID/Hint : MP3

Duration : 1h 57mn

Bit rate mode : Constant

Bit rate : 128 Kbps

Channel(s) : 2 channels

Sampling rate : 48.0 KHz

Resolution : 16 bits

Stream size : 108 MiB (8%)

Alignment : Split accross interleaves

Interleave, duration : 40 ms (1.00 video frame)

Interleave, preload duration : 500 ms









SOURCES:





Video: Des.Hommes.et.des.Dieux.(Of.Gods.And.Men).2010.LiMiTED.SUBBED.DVDSCR.XViD-HLS... Thanks

Audio: Des.Hommes.et.des.Dieux.(Of.Gods.And.Men).2010.LiMiTED.SUBBED.DVDSCR.XViD-HLS... Thanks







NOTES:



IMAGiNE bringing you another release..........Of Gods And Men ENG SUBBED DVDSCR



We found this and it looked to be a good film so What we did was use HLS release and did our own encode from that. We just made a small script containing resize,white balance,rgb eq,sharpness,chroma,brightness,contrast ect. It has no english audio but English subs Wish it did 